<?xml version="1.0" encoding="UTF-8"?>
<svg xmlns="http://www.w3.org/2000/svg" width="1024pt" height="1024pt" viewBox="0 0 1024 1024">
  <path d="M 64 384 L 64 896 C 64 931.347656 92.652344 960 128 960 L 896 960 C 931.347656 960 960 931.347656 960 896 L 960 384 Z M 320 832 L 192 832 L 192 704 L 320 704 Z M 320 640 L 192 640 L 192 512 L 320 512 Z M 576 832 L 448 832 L 448 704 L 576 704 Z M 576 640 L 448 640 L 448 512 L 576 512 Z M 832 832 L 704 832 L 704 704 L 832 704 Z M 832 640 L 704 640 L 704 512 L 832 512 Z M 832 640 "/>
  <path d="M 288 192 C 270.328125 192 256 177.671875 256 160 L 256 96 C 256 78.328125 270.328125 64 288 64 C 305.671875 64 320 78.328125 320 96 L 320 160 C 320 177.671875 305.671875 192 288 192 Z M 768 160 L 768 96 C 768 78.328125 753.671875 64 736 64 C 718.328125 64 704 78.328125 704 96 L 704 160 C 704 177.671875 718.328125 192 736 192 C 753.671875 192 768 177.671875 768 160 Z M 896 128 L 832 128 L 832 160 C 832 213.019531 789.019531 256 736 256 C 682.980469 256 640 213.019531 640 160 L 640 128 L 384 128 L 384 160 C 384 213.019531 341.019531 256 288 256 C 234.980469 256 192 213.019531 192 160 L 192 128 L 128 128 C 92.652344 128 64 156.652344 64 192 L 64 320 L 960 320 L 960 192 C 960 156.652344 931.347656 128 896 128 Z M 896 128 "/>
</svg>
