<?xml version="1.0" encoding="UTF-8"?>
<svg xmlns="http://www.w3.org/2000/svg" width="1024pt" height="1024pt" viewBox="0 0 1024 1024">
  <path d="M 512 64 C 759.421875 64 960 264.578125 960 512 C 960 759.421875 759.421875 960 512 960 C 264.578125 960 64 759.421875 64 512 C 64.28125 264.695312 264.695312 64.28125 512 64 M 512 0 C 229.230469 0 0 229.230469 0 512 C 0 794.769531 229.230469 1024 512 1024 C 794.769531 1024 1024 794.769531 1024 512 C 1024 229.230469 794.769531 0 512 0 Z M 512 0 "/>
  <path d="M 466.175781 452.800781 C 474.304688 431.679688 463.871094 420.800781 454.59375 420.800781 C 411.648438 420.800781 355.96875 522.816406 335.105469 522.816406 C 327.09375 522.21875 320.699219 515.90625 320 507.902344 C 320 486.785156 371.199219 437.503906 386.175781 422.273438 C 431.886719 374.636719 494.230469 346.503906 560.191406 343.742188 C 610.046875 343.742188 663.425781 374.207031 621.632812 488 L 538.113281 716.800781 C 528.269531 737.5 521.621094 759.578125 518.398438 782.273438 C 517.933594 786.320312 519.164062 790.382812 521.792969 793.496094 C 524.421875 796.609375 528.21875 798.5 532.289062 798.71875 C 567.105469 798.71875 630.910156 699.007812 647.488281 699.007812 C 655.902344 700.515625 661.867188 708.074219 661.375 716.609375 C 661.375 750.59375 525.695312 895.808594 408.511719 895.808594 C 366.71875 895.808594 337.726562 875.902344 337.726562 831.359375 C 344.800781 771.933594 360.742188 713.902344 385.023438 659.199219 Z M 528.832031 221.761719 C 529.769531 169.847656 572.015625 128.199219 623.9375 128 C 645.441406 126.871094 666.417969 134.898438 681.675781 150.09375 C 696.933594 165.289062 705.042969 186.234375 704 207.742188 C 703.882812 232.972656 693.664062 257.097656 675.621094 274.730469 C 657.578125 292.363281 633.222656 302.03125 608 301.566406 C 586.511719 302.890625 565.496094 294.886719 550.332031 279.601562 C 535.171875 264.316406 527.335938 243.238281 528.832031 221.761719 Z M 528.832031 221.761719 "/>
</svg>
