<?xml version="1.0" encoding="UTF-8"?>
<svg xmlns="http://www.w3.org/2000/svg" width="1024pt" height="1024pt" viewBox="0 0 1024 1024">
  <path d="M 780.480469 704 L 532.480469 272 C 526.46875 262.316406 515.878906 256.429688 504.480469 256.429688 C 493.082031 256.429688 482.492188 262.316406 476.480469 272 L 228.480469 704 C 219.847656 719.175781 224.976562 738.46875 240 747.359375 C 244.855469 750.238281 250.359375 751.835938 256 752 L 752 752 C 760.625 752.214844 768.972656 748.941406 775.144531 742.914062 C 781.320312 736.890625 784.800781 728.628906 784.800781 720 C 784.851562 714.371094 783.359375 708.835938 780.480469 704 Z M 503.679688 688 C 486.007812 688 471.679688 673.671875 471.679688 656 C 471.679688 638.328125 486.007812 624 503.679688 624 C 521.351562 624 535.679688 638.328125 535.679688 656 C 535.710938 672.949219 522.519531 686.984375 505.601562 688 Z M 535.679688 473.601562 L 519.679688 592 L 487.679688 592 L 471.679688 473.601562 L 471.679688 416 C 471.679688 398.328125 486.007812 384 503.679688 384 C 521.351562 384 535.679688 398.328125 535.679688 416 Z M 535.679688 473.601562 "/>
</svg>
